<svg width="99" height="36" viewBox="0 0 99 36" fill="none" xmlns="http://www.w3.org/2000/svg">
<g clip-path="url(#clip0_1_1229)">
<path d="M18.0348 7.3256C15.0722 7.3256 12.5515 8.3756 10.4727 10.4656C8.35372 12.5456 7.31933 15.0656 7.31933 18.0156C7.31933 20.9356 8.35372 23.4556 10.4727 25.5156C12.5415 27.5956 15.0722 28.6556 18.0348 28.6556C20.9672 28.6556 23.498 27.5956 25.5969 25.5156C27.6958 23.4556 28.7201 20.9356 28.7201 18.0156C28.7201 15.0656 27.6857 12.5456 25.5969 10.4656C23.498 8.3856 20.9773 7.3256 18.0348 7.3256ZM24.8738 24.7956C22.9758 26.6656 20.686 27.5956 18.0348 27.5956C15.3635 27.5956 13.0737 26.6656 11.2259 24.7956C9.32785 22.9256 8.38385 20.6456 8.38385 18.0156C8.38385 15.3356 9.32785 13.0756 11.2259 11.2056C13.0838 9.3156 15.3635 8.3756 18.0348 8.3756C20.686 8.3756 22.9657 9.3056 24.8738 11.2056C26.7518 13.0756 27.6657 15.3256 27.6657 18.0156C27.6657 20.6556 26.7518 22.9256 24.8738 24.7956ZM18.0348 9.4556C15.6748 9.4556 13.6261 10.2756 11.949 11.9456C10.2618 13.6256 9.44837 15.6356 9.44837 18.0056C9.44837 20.3556 10.2618 22.3656 11.949 24.0456C13.6361 25.7256 15.6748 26.5656 18.0348 26.5656C20.4149 26.5656 22.4134 25.7256 24.1005 24.0556C25.7877 22.3756 26.6313 20.3656 26.6313 18.0156C26.6313 15.6456 25.7877 13.6256 24.1005 11.9556C22.4134 10.2756 20.4249 9.4556 18.0348 9.4556ZM25.5467 18.3756C25.4764 20.4556 24.6328 22.1856 23.0963 23.5756C21.5296 24.9656 19.722 25.6156 17.6532 25.4956C15.5643 25.3756 13.8269 24.5656 12.431 23.0556C11.0552 21.4956 10.4125 19.7056 10.5028 17.6156C10.6234 15.5556 11.4368 13.8256 13.0034 12.4456C14.5199 11.0556 16.3476 10.4356 18.4465 10.5256C20.4952 10.6256 22.2226 11.4656 23.6185 12.9956C25.0144 14.5156 25.6672 16.3156 25.5467 18.3756ZM29.8349 13.0556C29.2122 11.4956 28.2682 10.1556 27.1133 8.9856C25.9082 7.8156 24.5625 6.8956 23.026 6.2556C21.4593 5.58561 19.7722 5.24561 18.0448 5.24561C16.2874 5.24561 14.6504 5.57561 13.0436 6.2556C11.5171 6.8956 10.1413 7.8056 8.96632 8.9856C7.79133 10.1556 6.89754 11.5056 6.24477 13.0556C5.54179 14.6156 5.23047 16.2656 5.23047 18.0156C5.23047 19.7456 5.54179 21.3956 6.24477 22.9756C6.89754 24.4856 7.78129 25.8456 8.96632 27.0256C10.1413 28.2056 11.5171 29.1156 13.0336 29.7556C14.6504 30.4256 16.2874 30.7656 18.0348 30.7656C19.7621 30.7656 21.4493 30.4256 23.0159 29.7556C24.5525 29.1056 25.8982 28.1956 27.1033 27.0256C28.2582 25.8556 29.2022 24.4856 29.8248 22.9756C30.5178 21.3956 30.8592 19.7356 30.8592 18.0156C30.8693 16.2656 30.5278 14.6156 29.8349 13.0556ZM28.8708 22.5656C28.2682 23.9556 27.4246 25.2056 26.34 26.2856C25.2554 27.3656 24.0302 28.2056 22.6142 28.8056C21.1681 29.4056 19.6517 29.7156 18.0448 29.7156C16.4581 29.7156 14.9216 29.4056 13.4755 28.8056C12.0494 28.2056 10.8242 27.3656 9.71952 26.2856C8.655 25.2056 7.79133 23.9556 7.21891 22.5656C6.59626 21.1056 6.30503 19.5956 6.30503 18.0156C6.30503 16.4056 6.59626 14.8956 7.21891 13.4356C7.80138 12.0456 8.66504 10.7956 9.71952 9.7256C10.8142 8.6456 12.0494 7.8056 13.4654 7.2056C14.9115 6.5856 16.4481 6.2956 18.0348 6.2956C19.6416 6.2956 21.158 6.5856 22.6042 7.2056C24.0302 7.8056 25.2554 8.6456 26.33 9.7256C27.4146 10.8056 28.2582 12.0456 28.8607 13.4356C29.4834 14.8956 29.8047 16.4056 29.8047 18.0156C29.8047 19.5956 29.4934 21.1056 28.8708 22.5656Z" fill="#1E55EB"/>
<path d="M12.5322 20.9461C12.713 21.2861 12.9138 21.5961 13.1549 21.8961V14.1061C12.251 15.2261 11.7891 16.5261 11.7891 17.9961C11.7891 19.0861 12.0301 20.0861 12.5322 20.9461ZM14.5508 23.1761C14.5608 23.1861 14.5709 23.1861 14.5809 23.1961C15.0027 23.4761 15.4747 23.7161 15.9467 23.8761V12.1161C15.4546 12.2861 14.9826 12.5261 14.5508 12.8161V23.1761ZM17.3627 11.8061V24.1961C17.3627 24.1961 17.3627 24.1961 17.3727 24.1961C17.5836 24.2461 17.8247 24.2461 18.0657 24.2461C18.3067 24.2461 18.5477 24.2461 18.7586 24.1961C18.7586 24.1961 18.7586 24.1961 18.7687 24.1961V11.8061C18.5377 11.7861 18.3067 11.7661 18.0657 11.7661C17.8247 11.7661 17.5937 11.7861 17.3627 11.8061ZM20.1847 23.8861C20.6768 23.7161 21.1287 23.4861 21.5505 23.2061C21.5605 23.1961 21.5706 23.1861 21.5806 23.1861V12.8361C21.1387 12.5361 20.6768 12.2961 20.1847 12.1261V23.8861ZM22.9765 14.1261V21.8861C23.2175 21.5961 23.4184 21.2761 23.5992 20.9661C24.0812 20.0861 24.3122 19.0861 24.3122 18.0161C24.3122 16.5361 23.8804 15.2361 22.9765 14.1261Z" fill="#1E55EB"/>
<path d="M15.2045 0.224941C14.5819 0.324941 13.9592 0.454941 13.3667 0.614941L14.371 4.31494C14.853 4.18494 15.3351 4.08494 15.8372 4.00494L15.2045 0.224941ZM6.11595 10.2849L2.88223 8.21494C2.54078 8.74494 2.21942 9.28494 1.92818 9.85494L5.35271 11.5949C5.59373 11.1349 5.8448 10.7049 6.11595 10.2849ZM11.5791 1.19494C10.9866 1.42494 10.4142 1.67494 9.8518 1.96494L11.6093 5.37494C12.0511 5.15494 12.503 4.95494 12.955 4.77494L11.5791 1.19494ZM10.3037 6.11494L8.20481 2.90494C7.67255 3.24494 7.16038 3.61494 6.66829 4.01494L9.08856 6.98494C9.48022 6.68494 9.88192 6.38494 10.3037 6.11494ZM7.99391 7.98494L5.25228 5.29494C4.81041 5.73494 4.39866 6.19494 4.007 6.67494L7.00974 9.07494C7.31102 8.69494 7.64242 8.33494 7.99391 7.98494ZM27.0046 6.99494L29.4449 4.03494C28.9428 3.63494 28.4206 3.25494 27.8783 2.90494L25.7995 6.12494C26.2212 6.39494 26.6229 6.68494 27.0046 6.99494ZM26.2614 1.96494C25.7091 1.68494 25.1366 1.42494 24.5441 1.20494L23.1582 4.77494C23.6302 4.95494 24.0922 5.15494 24.5341 5.38494L26.2614 1.96494ZM29.1236 9.10494L32.1062 6.67494C31.7145 6.18494 31.2827 5.72494 30.8408 5.28494L28.1093 7.97494C28.4607 8.33494 28.8022 8.70494 29.1236 9.10494ZM30.7304 11.5749L34.1549 9.82494C33.8737 9.26494 33.5523 8.72494 33.2109 8.20494L29.9872 10.2949C30.2684 10.7049 30.5094 11.1349 30.7304 11.5749ZM31.7949 14.3249L35.5107 13.3449C35.35 12.7249 35.1491 12.1249 34.9282 11.5349L31.3329 12.9249C31.5137 13.3749 31.6643 13.8449 31.7949 14.3249ZM22.7264 0.614941C22.1138 0.454941 21.5012 0.324941 20.8685 0.224941L20.2861 4.00494C20.7882 4.08494 21.2803 4.18494 21.7523 4.31494L22.7264 0.614941ZM18.9906 0.0249414C18.3679 -0.00505859 17.7352 -0.00505859 17.1026 0.0249414L17.3034 3.84494C17.8055 3.81494 18.2976 3.82494 18.7897 3.84494L18.9906 0.0249414ZM4.30828 21.6949L0.592514 22.6749C0.753195 23.2849 0.944005 23.8749 1.16494 24.4549L4.76019 23.1049C4.58947 22.6349 4.43883 22.1649 4.30828 21.6949ZM32.1062 20.2349L35.9124 20.8249C36.0128 20.2049 36.073 19.5749 36.1132 18.9349L32.2769 18.7349C32.2368 19.2449 32.1865 19.7449 32.1062 20.2349ZM31.343 23.0849L34.9382 24.4549C35.1592 23.8649 35.36 23.2649 35.5307 22.6449L31.8049 21.6749C31.6744 22.1549 31.5137 22.6249 31.343 23.0849ZM35.9023 15.1849L32.1062 15.7849C32.1765 16.2749 32.2368 16.7649 32.2669 17.2649V17.2749L36.1032 17.0749V17.0649C36.073 16.4249 36.0027 15.8049 35.9023 15.1849ZM29.9872 25.7249L33.2109 27.8149C33.5523 27.2849 33.8737 26.7349 34.1649 26.1749L30.7304 24.4449C30.5094 24.8849 30.2584 25.3149 29.9872 25.7249ZM28.1093 28.0249L30.8208 30.7349C31.2727 30.2849 31.6945 29.8149 32.0962 29.3249L29.0934 26.9249C28.7921 27.3149 28.4607 27.6849 28.1093 28.0249ZM25.8195 29.8849L27.8984 33.1049C28.4306 32.7549 28.9428 32.3849 29.4349 31.9949L26.9945 29.0249C26.6229 29.3349 26.2313 29.6149 25.8195 29.8849ZM4.76019 12.9249L1.16494 11.5649C0.944005 12.1449 0.743153 12.7349 0.582471 13.3449L4.29823 14.3349C4.42879 13.8549 4.58947 13.3849 4.76019 12.9249ZM6.97961 26.9049L3.99696 29.3249C4.39866 29.8149 4.82045 30.2849 5.26233 30.7249L7.99391 28.0249C7.64242 27.6749 7.30097 27.3049 6.97961 26.9049ZM5.36275 24.4349L1.93822 26.1849C2.21942 26.7349 2.53074 27.2749 2.87219 27.7949L6.1059 25.7249C5.8448 25.3149 5.59373 24.8849 5.36275 24.4349ZM3.84632 18.7549L0.0100426 18.9549C0.0401704 19.5849 0.110469 20.1949 0.200852 20.7949L3.99696 20.1949C3.91662 19.7349 3.8664 19.2549 3.84632 18.7549ZM9.0986 29.0249L6.66829 31.9949C7.16038 32.3949 7.67255 32.7649 8.20481 33.1049L10.3138 29.9049C9.89197 29.6249 9.49026 29.3349 9.0986 29.0249ZM3.99696 15.7749L0.190809 15.1849C0.100426 15.8049 0.0301278 16.4249 0 17.0549L3.83628 17.2549C3.8664 16.7549 3.91662 16.2649 3.99696 15.7749ZM23.1683 31.2249L24.524 34.8149C25.1266 34.5849 25.699 34.3249 26.2715 34.0449L24.524 30.6349C24.0822 30.8549 23.6302 31.0549 23.1683 31.2249ZM9.84175 34.0449C10.4041 34.3249 10.9866 34.5849 11.5791 34.8149L12.9349 31.2349C12.4729 31.0549 12.021 30.8549 11.5892 30.6349L9.84175 34.0449ZM17.0925 35.9749C17.7252 36.0049 18.3579 36.0049 19.0006 35.9749L18.7998 32.1549C18.2976 32.1849 17.8055 32.1849 17.3135 32.1549L17.0925 35.9749ZM20.276 32.0049L20.8786 35.7849C21.5012 35.6849 22.1239 35.5549 22.7264 35.3949L21.7422 31.6949C21.2602 31.8249 20.7681 31.9249 20.276 32.0049ZM13.3767 35.3949C13.9793 35.5549 14.5919 35.6849 15.2145 35.7849L15.8271 32.0049C15.3351 31.9249 14.853 31.8249 14.381 31.6949L13.3767 35.3949Z" fill="#1E55EB"/>
<path d="M43.344 27.1661V9.2561H50.6249C53.949 9.2561 56.3492 12.2861 56.3492 15.2061C56.3492 18.2561 54.0896 21.1561 50.7454 21.1561H46.8288V27.1561H43.344V27.1661ZM46.8388 18.1061H50.5446C51.8401 18.1061 52.8041 16.9661 52.8041 15.2061C52.8041 13.3661 51.6392 12.3061 50.3939 12.3061H46.8388V18.1061Z" fill="#1E55EB"/>
<path d="M66.2397 16.6659C64.191 16.6959 62.4436 17.8559 61.7306 19.3459V27.1759H58.3362V13.9459H61.4494V16.7759C62.3834 14.9859 64.1308 13.7759 65.5568 13.7759C65.9083 13.7759 66.0891 13.7759 66.2397 13.8059V16.6659Z" fill="#1E55EB"/>
<path d="M67.1565 20.6263C67.1565 16.8663 69.8379 13.7163 74.1763 13.7163C78.5047 13.7163 80.7743 16.8463 80.7743 20.4363C80.7743 20.8663 80.7141 21.3663 80.6639 21.6363H70.7618C70.9426 23.7063 72.5092 24.9463 74.2868 24.9463C75.8936 24.9463 77.159 23.9663 77.5908 22.8863L80.453 23.9663C79.4889 25.9863 77.2092 27.4263 74.2667 27.4263C69.7073 27.4163 67.1565 24.2863 67.1565 20.6263ZM77.6008 19.4463C77.4201 17.4763 75.984 16.1663 74.1261 16.1663C72.2983 16.1663 70.8622 17.4763 70.7015 19.4463H77.6008V19.4463Z" fill="#1E55EB"/>
<path d="M95.2424 10.4362C95.2424 9.45619 96.1262 8.59619 97.1204 8.59619C98.0845 8.59619 98.9984 9.45619 98.9984 10.4362C98.9984 11.4462 98.0845 12.3062 97.1204 12.3062C96.1262 12.3062 95.2424 11.4162 95.2424 10.4362ZM95.4232 27.1662V13.9462H98.8176V27.1662H95.4232Z" fill="#1E55EB"/>
<path d="M81.2349 27.1663L88.104 16.6563H81.968V13.9363H93.1253L86.2461 24.4363H93.1755V27.1663H81.2349Z" fill="#1E55EB"/>
</g>
<defs>
<clipPath id="clip0_1_1229">
<rect width="98.9983" height="35.995" fill="white" transform="translate(0 0.00244141)"/>
</clipPath>
</defs>
</svg>
