<svg version="1.1" id="Layer_1" xmlns:x="ns_extend;" xmlns:i="ns_ai;" xmlns:graph="ns_graphs;" xmlns="http://www.w3.org/2000/svg" xmlns:xlink="http://www.w3.org/1999/xlink" x="0px" y="0px" viewBox="0 0 62.8 63" style="enable-background:new 0 0 62.8 63;" xml:space="preserve">
 <style type="text/css">
  .st0{fill:#1981FF;}
 </style>
 <metadata>
  <sfw xmlns="ns_sfw;">
   <slices>
   </slices>
   <sliceSourceBounds bottomLeftOrigin="true" height="63" width="62.8" x="-36.9" y="-13.5">
   </sliceSourceBounds>
  </sfw>
 </metadata>
 <g>
  <path class="st0" d="M31.3,12.8c-4.9,0-9.8,1.9-13.1,5.4c-3.5,3.5-5.6,8.2-5.4,13.1c-0.2,4.9,1.9,9.6,5.4,13.1s8.2,5.6,13.1,5.4
		c4.9,0,9.6-1.9,13.1-5.4s5.6-8.2,5.4-13.1c0-4.9-1.9-9.8-5.4-13.1C41.1,14.7,36.4,12.8,31.3,12.8z M43.2,43.4
		c-3.1,3.1-7.4,4.9-11.9,4.9c-4.6,0.2-8.8-1.8-11.9-4.9c-3.3-3.1-5.1-7.3-4.9-11.9c-0.2-4.6,1.7-8.8,4.9-11.9
		c3.1-3.3,7.3-5.1,11.9-4.9c4.6,0,8.8,1.8,11.9,4.9s4.9,7.3,4.9,11.9C48.3,36,46.5,40.2,43.2,43.4z M31.3,16.6
		c-4,0-7.9,1.6-10.7,4.4s-4.4,6.6-4.4,10.7s1.6,7.9,4.4,10.5c2.8,2.8,6.7,4.4,10.7,4.4s7.9-1.6,10.5-4.4c2.8-2.8,4.4-6.6,4.4-10.5
		c0-4-1.6-7.9-4.4-10.7C39.2,18.2,35.3,16.4,31.3,16.6z M44.5,32.2c0,3.5-1.6,6.8-4.2,9.1c-2.6,2.5-6,3.7-9.4,3.3
		C23.6,44.3,18,38.3,18.4,31v-0.2c0.2-3.5,1.8-6.8,4.4-9.1c2.6-2.5,5.9-3.7,9.5-3.3c3.5,0.2,6.6,1.8,8.9,4.4
		C43.4,25.4,44.6,28.7,44.5,32.2z M52,22.9c-1.2-2.6-2.8-5.1-4.7-7.2c-2.1-2.1-4.4-3.7-7.2-4.7c-2.8-1.2-5.8-1.8-8.8-1.8
		s-5.9,0.5-8.8,1.8c-2.6,1-5.1,2.6-7,4.7c-2.1,2.1-3.7,4.4-4.7,7.2c-1.2,2.8-1.8,5.8-1.8,8.8s0.5,5.9,1.8,8.7
		c3.5,8.2,11.5,13.7,20.5,13.7c3,0,5.9-0.5,8.8-1.8c2.6-1.1,5.1-2.8,7.2-4.7c2.1-2.1,3.7-4.4,4.7-7c1.2-2.8,1.8-5.6,1.8-8.8
		C53.7,28.5,53.2,25.6,52,22.9z M50.2,39.5c-1.1,2.5-2.5,4.6-4.4,6.5c-1.9,1.9-4,3.3-6.5,4.4c-5.1,2.1-10.9,2.1-15.9,0
		c-2.4-1-4.7-2.4-6.6-4.4c-1.9-1.9-3.3-4-4.4-6.5c-2.1-5.1-2.1-10.8,0-15.9c1-2.4,2.4-4.5,4.4-6.5s4-3.3,6.5-4.4s5.2-1.6,7.9-1.6
		c2.8,0,5.4,0.5,7.9,1.6c2.5,1.1,4.7,2.4,6.6,4.4c1.9,1.9,3.3,4,4.4,6.5C52.5,28.7,52.5,34.5,50.2,39.5z">
  </path>
  <path class="st0" d="M21.9,36.6c0.4,0.5,0.7,1.2,1.1,1.8V24.7c-1.6,1.9-2.4,4.4-2.4,6.8C20.5,33.2,21,35,21.9,36.6z M25.4,40.6
		c0.7,0.5,1.6,0.9,2.4,1.2V21.2c-0.9,0.3-1.8,0.7-2.4,1.2C25.4,22.4,25.4,40.6,25.4,40.6z M30.3,20.6v21.7h2.5V20.6
		C32.7,20.6,30.3,20.6,30.3,20.6z M35.2,41.8c0.9-0.4,1.6-0.7,2.5-1.2V22.4c-0.7-0.5-1.6-0.9-2.5-1.2C35.2,21.2,35.2,41.8,35.2,41.8
		z M39.9,24.9v13.6l1.1-1.6c0.9-1.6,1.2-3.3,1.2-5.1C42.4,29.1,41.5,26.6,39.9,24.9z M26.4,0.3c-1.1,0.2-2.1,0.3-3.2,0.7L25,7.5
		L27.6,7C27.6,7,26.4,0.4,26.4,0.3z M10.7,18l-5.6-3.7c-0.7,0.9-1.2,1.9-1.8,2.8l6,3C9.8,19.4,10.2,18.7,10.7,18 M20.1,2.1
		c-1.1,0.4-1.9,0.9-3,1.4l3,5.9c0.9-0.5,1.6-0.7,2.4-1L20.1,2.1z M17.9,10.7l-3.5-5.6c-1,0.7-1.9,1.2-2.8,1.9l4.2,5.2L17.9,10.7
		 M13.8,14L9.1,9.3C8.4,10,7.7,10.9,7,11.7l5.3,4.2C12.8,15.2,13.3,14.5,13.8,14 M46.9,12.2l4.2-5.1l-2.6-2.1l-3.7,5.6
		C45.7,11.2,46.4,11.7,46.9,12.2 M45.7,3.5c-1-0.5-1.9-0.9-3-1.4l-2.4,6.3c0.9,0.3,1.8,0.7,2.5,1C42.7,9.4,45.7,3.5,45.7,3.5z
		 M50.8,15.9l5.1-4.2c-0.7-0.9-1.4-1.6-2.3-2.4L48.8,14L50.8,15.9 M53.4,20.3l6-3c-0.5-1.1-1-1.9-1.8-2.8L52,18.2
		C52.5,18.7,52.9,19.4,53.4,20.3 M55.1,25l6.5-1.8l-1-3.1l-6.3,2.4C54.6,23.4,55,24.3,55.1,25 M39.5,1.1c-1-0.4-2.1-0.5-3.2-0.7
		l-1,6.7L38,7.5C38,7.5,39.5,1.1,39.5,1.1z M33.1,0h-3.3l0.4,6.8h2.6C32.7,6.8,33.1,0,33.1,0z M7.5,38l-6.5,1.8l1.1,3.1l6.3-2.5
		C8.1,39.5,7.7,38.7,7.5,38 M55.8,35.4l6.6,1c0.2-1,0.4-2.3,0.4-3.3L56,32.7C56,33.6,56,34.5,55.8,35.4 M54.4,40.4l6.3,2.5l1-3.1
		L55.3,38C55.1,38.7,54.8,39.5,54.4,40.4 M62.5,26.6l-6.6,1c0.2,0.9,0.2,1.8,0.3,2.6l6.7-0.4C62.6,28.7,62.6,27.6,62.5,26.6
		 M52.1,45l5.6,3.7c0.7-0.9,1.2-1.9,1.8-2.8l-5.9-3C53.2,43.6,52.7,44.3,52.1,45 M49,49l4.7,4.7c0.7-0.7,1.6-1.6,2.3-2.5l-5.2-4.2
		C50,47.8,49.5,48.5,49,49 M45,52.3l3.7,5.6c0.9-0.5,1.8-1.2,2.6-1.9l-4.2-5.2L45,52.3 M8.2,22.6l-6.3-2.4l-1.1,3.1L7.4,25
		C7.7,24.2,8.1,23.5,8.2,22.6 M12.1,47.1l-5.2,4.2c0.7,0.9,1.4,1.8,2.3,2.4L14,49L12.1,47.1 M9.3,42.7l-6,3c0.5,1.1,1,1.9,1.8,2.8
		l5.6-3.7C10.3,44.3,9.8,43.6,9.3,42.7 M6.7,32.7L0,33.2c0,1,0.2,2.1,0.3,3.1l6.7-1C6.8,34.5,6.7,33.6,6.7,32.7 M15.8,50.8L11.6,56
		c0.9,0.7,1.8,1.4,2.6,1.9l3.7-5.6L15.8,50.8 M7,27.6l-6.7-1c-0.2,1-0.3,2.1-0.3,3.3l6.7,0.4C6.7,29.4,6.8,28.5,7,27.6 M40.2,54.6
		l2.5,6.3c1-0.4,2.1-0.9,3-1.4l-3-6C41.8,53.9,41.1,54.2,40.2,54.6 M17.1,59.5c1.1,0.5,1.9,0.9,3,1.4l2.4-6.3
		c-0.9-0.4-1.6-0.7-2.3-1.1L17.1,59.5z M29.8,63h3.3l-0.4-6.8h-2.6L29.8,63z M35.4,56l1,6.6c1.1-0.2,2.1-0.4,3.1-0.7l-1.8-6.5
		C36.9,55.6,36.2,55.8,35.4,56 M23.3,61.9c1.1,0.3,2.1,0.5,3.2,0.7l1-6.6c-0.9-0.2-1.8-0.4-2.4-0.5C25,55.5,23.3,62,23.3,61.9z">
  </path>
 </g>
</svg>